<svg width="30" height="31" viewBox="0 0 30 31" fill="none" xmlns="http://www.w3.org/2000/svg">
<g clip-path="url(#clip0_98_173)">
<path d="M15.0001 0.56543C10.9229 0.56543 10.4148 0.585117 8.81914 0.652617C7.21695 0.731367 6.1332 0.979805 5.17695 1.35105C4.1907 1.7373 3.3507 2.25012 2.52102 3.08449C1.6857 3.91418 1.1682 4.75418 0.787578 5.74043C0.416328 6.69668 0.167891 7.78043 0.0891406 9.38262C0.0169531 10.9792 0.00195312 11.4864 0.00195312 15.5636C0.00195312 19.6407 0.0216406 20.1489 0.0891406 21.7445C0.167891 23.342 0.416328 24.4304 0.787578 25.3867C1.17383 26.3729 1.68664 27.2129 2.52102 28.0426C3.3507 28.8779 4.1907 29.3954 5.17695 29.7761C6.1332 30.1426 7.22164 30.3957 8.81914 30.4745C10.4157 30.5467 10.9229 30.5617 15.0001 30.5617C19.0773 30.5617 19.5854 30.542 21.181 30.4745C22.7785 30.3957 23.867 30.1417 24.8232 29.7761C25.8095 29.3898 26.6495 28.877 27.4791 28.0426C28.3145 27.2129 28.832 26.3776 29.2126 25.3867C29.5791 24.4304 29.8323 23.342 29.911 21.7445C29.9832 20.1479 29.9982 19.6407 29.9982 15.5636C29.9982 11.4864 29.9785 10.9782 29.911 9.38262C29.8323 7.78512 29.5782 6.69105 29.2126 5.74043C28.8263 4.75418 28.3135 3.91418 27.4791 3.08449C26.6495 2.24918 25.8141 1.73168 24.8232 1.35105C23.867 0.979805 22.7785 0.731367 21.181 0.652617C19.5845 0.58043 19.0773 0.56543 15.0001 0.56543ZM15.0001 3.26543C19.0041 3.26543 19.4823 3.28512 21.0648 3.35262C22.5245 3.42105 23.3195 3.6648 23.8473 3.87105C24.5513 4.14387 25.0435 4.46637 25.576 4.99324C26.0982 5.51543 26.4207 6.01324 26.6935 6.7173C26.8998 7.24512 27.1435 8.04012 27.212 9.4998C27.2795 11.0823 27.2991 11.5614 27.2991 15.5645C27.2991 19.5676 27.2795 20.0467 27.2063 21.6292C27.1276 23.0889 26.8838 23.8839 26.6785 24.4117C26.3945 25.1157 26.0776 25.6079 25.5545 26.1404C25.0266 26.6626 24.5241 26.9851 23.8257 27.2579C23.3045 27.4642 22.4982 27.7079 21.0329 27.7764C19.442 27.8439 18.9732 27.8636 14.9588 27.8636C10.9445 27.8636 10.4766 27.8439 8.88383 27.7707C7.42414 27.692 6.61883 27.4482 6.09102 27.2429C5.37852 26.9589 4.89008 26.642 4.36695 26.1189C3.83914 25.5911 3.50352 25.0886 3.24477 24.3901C3.03477 23.8689 2.79477 23.0626 2.71695 21.5973C2.66352 20.0251 2.6382 19.5376 2.6382 15.542C2.6382 11.5482 2.66352 11.0598 2.71695 9.46793C2.79477 8.00262 3.03477 7.19824 3.24477 6.67512C3.50352 5.96168 3.84008 5.47418 4.36695 4.94637C4.88914 4.42418 5.37852 4.08668 6.09102 3.8223C6.61883 3.61699 7.40445 3.37324 8.86977 3.30012C10.4607 3.24293 10.9295 3.2223 14.9382 3.2223L15.0001 3.26543ZM15.0001 7.86574C10.7429 7.86574 7.30039 11.3129 7.30039 15.5654C7.30039 19.8226 10.7476 23.2651 15.0001 23.2651C19.2573 23.2651 22.6998 19.8179 22.6998 15.5654C22.6998 11.3082 19.2526 7.86574 15.0001 7.86574ZM15.0001 20.5651C12.2363 20.5651 10.0004 18.3292 10.0004 15.5654C10.0004 12.8017 12.2363 10.5657 15.0001 10.5657C17.7638 10.5657 19.9998 12.8017 19.9998 15.5654C19.9998 18.3292 17.7638 20.5651 15.0001 20.5651ZM24.8101 7.55824C24.8101 8.5548 23.9991 9.35918 23.0073 9.35918C22.0107 9.35918 21.2063 8.55387 21.2063 7.55824C21.2063 6.5673 22.0163 5.76105 23.0073 5.76105C23.9982 5.76105 24.8101 6.5673 24.8101 7.55824Z" fill="white"/>
</g>
<defs>
<clipPath id="clip0_98_173">
<rect width="30" height="30" fill="white" transform="translate(0 0.56543)"/>
</clipPath>
</defs>
</svg>
