<svg width="30" height="30" viewBox="0 0 30 30" fill="none" xmlns="http://www.w3.org/2000/svg">
<path d="M10.7813 16.4062C10.5031 16.4062 10.2312 16.3238 9.99998 16.1693C9.76873 16.0147 9.58848 15.7951 9.48205 15.5381C9.37561 15.2812 9.34776 14.9984 9.40203 14.7257C9.45629 14.4529 9.59022 14.2023 9.78689 14.0056C9.98355 13.809 10.2341 13.675 10.5069 13.6208C10.7797 13.5665 11.0624 13.5944 11.3194 13.7008C11.5764 13.8072 11.796 13.9875 11.9505 14.2187C12.105 14.45 12.1875 14.7219 12.1875 15C12.1875 15.373 12.0393 15.7306 11.7756 15.9944C11.5119 16.2581 11.1542 16.4062 10.7813 16.4062ZM19.2188 13.5937C18.9406 13.5937 18.6687 13.6762 18.4375 13.8307C18.2062 13.9853 18.026 14.2049 17.9195 14.4619C17.8131 14.7188 17.7853 15.0016 17.8395 15.2743C17.8938 15.5471 18.0277 15.7977 18.2244 15.9944C18.4211 16.191 18.6716 16.325 18.9444 16.3792C19.2172 16.4335 19.4999 16.4056 19.7569 16.2992C20.0139 16.1928 20.2335 16.0125 20.388 15.7813C20.5425 15.55 20.625 15.2781 20.625 15C20.625 14.627 20.4768 14.2694 20.2131 14.0056C19.9494 13.7419 19.5917 13.5937 19.2188 13.5937ZM17.7809 18.8941C16.9459 19.4124 15.9827 19.687 15 19.687C14.0173 19.687 13.0541 19.4124 12.2191 18.8941C12.0087 18.7614 11.7542 18.7177 11.5116 18.7727C11.269 18.8276 11.0581 18.9767 10.9254 19.1871C10.7927 19.3975 10.749 19.652 10.8039 19.8947C10.8589 20.1373 11.008 20.3481 11.2184 20.4809C12.3529 21.1881 13.6631 21.563 15 21.563C16.3369 21.563 17.6471 21.1881 18.7816 20.4809C18.9921 20.3481 19.1411 20.1373 19.1961 19.8947C19.251 19.652 19.2073 19.3975 19.0746 19.1871C18.9419 18.9767 18.731 18.8276 18.4884 18.7727C18.2458 18.7177 17.9913 18.7614 17.7809 18.8941ZM27.1875 15C27.1875 17.4105 26.4727 19.7668 25.1335 21.771C23.7944 23.7752 21.8909 25.3373 19.664 26.2598C17.437 27.1822 14.9865 27.4236 12.6223 26.9533C10.2582 26.4831 8.08659 25.3223 6.38214 23.6179C4.67769 21.9134 3.51694 19.7418 3.04668 17.3777C2.57643 15.0135 2.81778 12.563 3.74022 10.336C4.66267 8.10907 6.22477 6.20564 8.22899 4.86646C10.2332 3.52728 12.5895 2.8125 15 2.8125C18.2313 2.81591 21.3292 4.10104 23.6141 6.3859C25.899 8.67076 27.1841 11.7687 27.1875 15ZM25.3125 15C25.3092 12.3453 24.2836 9.79383 22.4486 7.87544C20.6136 5.95706 18.1102 4.81917 15.4582 4.69805C14.1 6.60703 14.0625 8.42344 14.0625 8.4375C14.0625 8.68614 14.1613 8.9246 14.3371 9.10041C14.5129 9.27623 14.7514 9.375 15 9.375C15.2486 9.375 15.4871 9.27623 15.6629 9.10041C15.8387 8.9246 15.9375 8.68614 15.9375 8.4375C15.9375 8.18886 16.0363 7.9504 16.2121 7.77459C16.3879 7.59877 16.6264 7.5 16.875 7.5C17.1236 7.5 17.3621 7.59877 17.5379 7.77459C17.7137 7.9504 17.8125 8.18886 17.8125 8.4375C17.8125 9.18342 17.5162 9.89879 16.9887 10.4262C16.4613 10.9537 15.7459 11.25 15 11.25C14.2541 11.25 13.5387 10.9537 13.0113 10.4262C12.4838 9.89879 12.1875 9.18342 12.1875 8.4375C12.1875 8.35195 12.2027 6.76172 13.1789 4.84805C11.2481 5.19446 9.4561 6.08439 8.01326 7.41342C6.57042 8.74245 5.53657 10.4554 5.03303 12.3514C4.5295 14.2473 4.57716 16.2475 5.17044 18.1173C5.76371 19.9871 6.87798 21.6489 8.38249 22.9077C9.887 24.1665 11.7193 24.9701 13.6645 25.2241C15.6096 25.4782 17.5869 25.1722 19.3642 24.342C21.1415 23.5118 22.6452 22.192 23.6988 20.5373C24.7524 18.8825 25.3122 16.9617 25.3125 15Z" fill="#D97742"/>
</svg>
