<svg width="30" height="30" viewBox="0 0 30 30" fill="none" xmlns="http://www.w3.org/2000/svg">
<path d="M24.8438 9.375C24.1948 9.375 23.5604 9.56744 23.0208 9.92799C22.4812 10.2885 22.0606 10.801 21.8123 11.4006C21.5639 12.0001 21.4989 12.6599 21.6255 13.2964C21.7522 13.9329 22.0647 14.5176 22.5236 14.9764C22.9824 15.4353 23.5671 15.7478 24.2036 15.8745C24.8401 16.0011 25.4999 15.9361 26.0994 15.6877C26.699 15.4394 27.2115 15.0188 27.572 14.4792C27.9326 13.9396 28.125 13.3052 28.125 12.6563C28.125 11.786 27.7793 10.9514 27.1639 10.3361C26.5486 9.7207 25.714 9.375 24.8438 9.375ZM24.8438 14.0625C24.5656 14.0625 24.2937 13.98 24.0625 13.8255C23.8312 13.671 23.651 13.4514 23.5445 13.1944C23.4381 12.9374 23.4103 12.6547 23.4645 12.3819C23.5188 12.1091 23.6527 11.8585 23.8494 11.6619C24.0461 11.4652 24.2966 11.3313 24.5694 11.277C24.8422 11.2228 25.1249 11.2506 25.3819 11.357C25.6389 11.4635 25.8585 11.6437 26.013 11.875C26.1675 12.1062 26.25 12.3781 26.25 12.6563C26.25 13.0292 26.1018 13.3869 25.8381 13.6506C25.5744 13.9143 25.2167 14.0625 24.8438 14.0625ZM8.4375 12.6563C8.4375 12.0073 8.24506 11.3729 7.88451 10.8333C7.52396 10.2937 7.0115 9.87312 6.41193 9.62477C5.81236 9.37642 5.15261 9.31144 4.51611 9.43805C3.87961 9.56466 3.29495 9.87717 2.83606 10.3361C2.37717 10.7949 2.06466 11.3796 1.93805 12.0161C1.81144 12.6526 1.87642 13.3124 2.12477 13.9119C2.37312 14.5115 2.79369 15.024 3.33329 15.3845C3.87289 15.7451 4.50728 15.9375 5.15625 15.9375C6.02649 15.9375 6.86109 15.5918 7.47645 14.9764C8.0918 14.3611 8.4375 13.5265 8.4375 12.6563ZM5.15625 14.0625C4.87812 14.0625 4.60624 13.98 4.37498 13.8255C4.14372 13.671 3.96348 13.4514 3.85705 13.1944C3.75061 12.9374 3.72276 12.6547 3.77702 12.3819C3.83128 12.1091 3.96521 11.8585 4.16188 11.6619C4.35855 11.4652 4.60912 11.3313 4.88191 11.277C5.15469 11.2228 5.43744 11.2506 5.6944 11.357C5.95136 11.4635 6.17098 11.6437 6.32551 11.875C6.48003 12.1062 6.5625 12.3781 6.5625 12.6563C6.5625 13.0292 6.41434 13.3869 6.15062 13.6506C5.8869 13.9143 5.52921 14.0625 5.15625 14.0625ZM10.7813 10.3125C11.4302 10.3125 12.0646 10.1201 12.6042 9.75951C13.1438 9.39896 13.5644 8.8865 13.8127 8.28693C14.0611 7.68736 14.1261 7.02761 13.9995 6.39111C13.8728 5.75461 13.5603 5.16995 13.1014 4.71106C12.6426 4.25217 12.0579 3.93966 11.4214 3.81305C10.7849 3.68644 10.1251 3.75142 9.52557 3.99977C8.926 4.24812 8.41354 4.66869 8.05299 5.20829C7.69244 5.74789 7.5 6.38228 7.5 7.03125C7.5 7.90149 7.8457 8.73609 8.46106 9.35145C9.07641 9.9668 9.91101 10.3125 10.7813 10.3125ZM10.7813 5.625C11.0594 5.625 11.3313 5.70748 11.5625 5.862C11.7938 6.01652 11.974 6.23614 12.0805 6.4931C12.1869 6.75006 12.2147 7.03281 12.1605 7.3056C12.1062 7.57838 11.9723 7.82895 11.7756 8.02562C11.579 8.22229 11.3284 8.35622 11.0556 8.41048C10.7828 8.46474 10.5001 8.43689 10.2431 8.33046C9.98615 8.22402 9.76652 8.04378 9.612 7.81252C9.45748 7.58126 9.375 7.30938 9.375 7.03125C9.375 6.65829 9.52316 6.30061 9.78688 6.03688C10.0506 5.77316 10.4083 5.625 10.7813 5.625ZM19.2188 10.3125C19.8677 10.3125 20.5021 10.1201 21.0417 9.75951C21.5813 9.39896 22.0019 8.8865 22.2502 8.28693C22.4986 7.68736 22.5636 7.02761 22.437 6.39111C22.3103 5.75461 21.9978 5.16995 21.5389 4.71106C21.0801 4.25217 20.4954 3.93966 19.8589 3.81305C19.2224 3.68644 18.5626 3.75142 17.9631 3.99977C17.3635 4.24812 16.851 4.66869 16.4905 5.20829C16.1299 5.74789 15.9375 6.38228 15.9375 7.03125C15.9375 7.90149 16.2832 8.73609 16.8986 9.35145C17.5139 9.9668 18.3485 10.3125 19.2188 10.3125ZM19.2188 5.625C19.4969 5.625 19.7688 5.70748 20 5.862C20.2313 6.01652 20.4115 6.23614 20.518 6.4931C20.6244 6.75006 20.6522 7.03281 20.598 7.3056C20.5437 7.57838 20.4098 7.82895 20.2131 8.02562C20.0165 8.22229 19.7659 8.35622 19.4931 8.41048C19.2203 8.46474 18.9376 8.43689 18.6806 8.33046C18.4236 8.22402 18.204 8.04378 18.0495 7.81252C17.895 7.58126 17.8125 7.30938 17.8125 7.03125C17.8125 6.65829 17.9607 6.30061 18.2244 6.03688C18.4881 5.77316 18.8458 5.625 19.2188 5.625ZM21.9281 17.4445C21.4519 17.1818 21.0322 16.8278 20.693 16.4027C20.3538 15.9776 20.1017 15.4898 19.9512 14.9672C19.6395 13.8952 18.9883 12.9534 18.0954 12.2832C17.2026 11.613 16.1164 11.2507 15 11.2507C13.8836 11.2507 12.7974 11.613 11.9046 12.2832C11.0117 12.9534 10.3605 13.8952 10.0488 14.9672C9.74772 16.0188 9.04181 16.908 8.08594 17.4398C7.16897 17.936 6.44359 18.7237 6.02453 19.6784C5.60546 20.6331 5.51664 21.7002 5.7721 22.711C6.02756 23.7219 6.61273 24.6187 7.43505 25.2596C8.25737 25.9006 9.2699 26.2491 10.3125 26.25C10.9373 26.2518 11.556 26.127 12.1313 25.8832C13.9653 25.1268 16.0241 25.1268 17.8582 25.8832C18.9691 26.3663 20.2239 26.4007 21.3595 25.979C22.4951 25.5573 23.4234 24.7123 23.9497 23.6212C24.476 22.5301 24.5595 21.2776 24.1826 20.1263C23.8057 18.975 22.9978 18.0144 21.9281 17.4457V17.4445ZM19.6875 24.375C19.3069 24.3753 18.9301 24.2984 18.5801 24.1488C16.2839 23.2004 13.7055 23.2004 11.4094 24.1488C10.7421 24.4361 9.98955 24.4541 9.30934 24.1989C8.62913 23.9438 8.07404 23.4353 7.76034 22.7801C7.44664 22.1248 7.39866 21.3735 7.62647 20.6837C7.85428 19.9938 8.34019 19.4189 8.98242 19.0793C9.67294 18.698 10.2815 18.1842 10.7734 17.5675C11.2652 16.9508 11.6307 16.2432 11.8488 15.4852C12.0469 14.8026 12.4613 14.2029 13.0296 13.7761C13.5978 13.3494 14.2893 13.1186 15 13.1186C15.7107 13.1186 16.4022 13.3494 16.9704 13.7761C17.5387 14.2029 17.9531 14.8026 18.1512 15.4852C18.3701 16.2446 18.7366 16.9534 19.2299 17.571C19.7232 18.1885 20.3335 18.7027 21.0258 19.084C21.5787 19.3805 22.0166 19.8535 22.2698 20.4275C22.523 21.0016 22.577 21.6439 22.4231 22.2522C22.2693 22.8605 21.9164 23.3998 21.4207 23.7845C20.925 24.1691 20.3149 24.377 19.6875 24.375Z" fill="#D97742"/>
</svg>
