<svg width="38" height="31" viewBox="0 0 38 31" fill="none" xmlns="http://www.w3.org/2000/svg">
<path fill-rule="evenodd" clip-rule="evenodd" d="M11.9541 30.3744C26.0148 30.3744 33.7056 18.9044 33.7056 8.95892C33.7056 8.63242 33.7056 8.30837 33.6833 7.98554C35.1793 6.92164 36.4704 5.6007 37.497 4.08926C36.1034 4.69824 34.6222 5.09762 33.1076 5.2737C34.7024 4.33271 35.8966 2.85437 36.4686 1.10996C34.9669 1.98675 33.3255 2.60555 31.6134 2.93757C28.7181 -0.0926809 23.876 -0.239497 20.7963 2.61098C18.8121 4.44893 17.9682 7.18928 18.5848 9.80313C12.4385 9.49865 6.71142 6.64088 2.82876 1.93962C0.799866 5.37888 1.8376 9.77704 5.19674 11.9855C3.98015 11.9507 2.78964 11.6282 1.72582 11.0449V11.1404C1.72768 14.7228 4.29314 17.8074 7.85908 18.5172C6.73378 18.8199 5.55259 18.8638 4.40865 18.6455C5.40913 21.7124 8.28014 23.8131 11.5498 23.8736C8.84279 25.9683 5.49856 27.1058 2.05558 27.1021C1.44822 27.1003 0.840853 27.0654 0.235352 26.9939C3.73236 29.2024 7.79946 30.3744 11.9541 30.3689" fill="white"/>
</svg>
